<svg width="38" height="27" viewBox="0 0 38 27" fill="none" xmlns="http://www.w3.org/2000/svg">
<path d="M0.583374 26.3333V22.4166C0.583374 21.4444 0.833374 20.5624 1.33337 19.7708C1.83337 18.9791 2.52782 18.3888 3.41671 17.9999C5.44449 17.111 7.27087 16.4721 8.89587 16.0833C10.5209 15.6944 12.1945 15.4999 13.9167 15.4999C15.6389 15.4999 17.3056 15.6944 18.9167 16.0833C20.5278 16.4721 22.3473 17.111 24.375 17.9999C25.2639 18.3888 25.9653 18.9791 26.4792 19.7708C26.9931 20.5624 27.25 21.4444 27.25 22.4166V26.3333H0.583374ZM29.75 26.3333V22.4166C29.75 20.6666 29.3056 19.2291 28.4167 18.1041C27.5278 16.9791 26.3612 16.0694 24.9167 15.3749C26.8334 15.5971 28.6389 15.9235 30.3334 16.3541C32.0278 16.7846 33.4028 17.2777 34.4584 17.8333C35.375 18.361 36.0973 19.0138 36.625 19.7916C37.1528 20.5694 37.4167 21.4444 37.4167 22.4166V26.3333H29.75ZM13.9167 12.9583C12.0834 12.9583 10.5834 12.3749 9.41671 11.2083C8.25004 10.0416 7.66671 8.54159 7.66671 6.70825C7.66671 4.87492 8.25004 3.37492 9.41671 2.20825C10.5834 1.04159 12.0834 0.458252 13.9167 0.458252C15.75 0.458252 17.25 1.04159 18.4167 2.20825C19.5834 3.37492 20.1667 4.87492 20.1667 6.70825C20.1667 8.54159 19.5834 10.0416 18.4167 11.2083C17.25 12.3749 15.75 12.9583 13.9167 12.9583ZM28.9167 6.70825C28.9167 8.54159 28.3334 10.0416 27.1667 11.2083C26 12.3749 24.5 12.9583 22.6667 12.9583C22.3612 12.9583 22.0209 12.9374 21.6459 12.8958C21.2709 12.8541 20.9306 12.7777 20.625 12.6666C21.2917 11.9721 21.7987 11.118 22.1459 10.1041C22.4931 9.0902 22.6667 7.95825 22.6667 6.70825C22.6667 5.45825 22.4931 4.35409 22.1459 3.39575C21.7987 2.43742 21.2917 1.55547 20.625 0.749919C20.9306 0.666585 21.2709 0.597141 21.6459 0.541585C22.0209 0.48603 22.3612 0.458252 22.6667 0.458252C24.5 0.458252 26 1.04159 27.1667 2.20825C28.3334 3.37492 28.9167 4.87492 28.9167 6.70825ZM3.08337 23.8333H24.75V22.4166C24.75 21.9721 24.6181 21.5416 24.3542 21.1249C24.0903 20.7083 23.7639 20.4166 23.375 20.2499C21.375 19.361 19.6945 18.7638 18.3334 18.4583C16.9723 18.1527 15.5 17.9999 13.9167 17.9999C12.3334 17.9999 10.8542 18.1527 9.47921 18.4583C8.10421 18.7638 6.41671 19.361 4.41671 20.2499C4.02782 20.4166 3.70837 20.7083 3.45837 21.1249C3.20837 21.5416 3.08337 21.9721 3.08337 22.4166V23.8333ZM13.9167 10.4583C15 10.4583 15.8959 10.1041 16.6042 9.39575C17.3125 8.68742 17.6667 7.79159 17.6667 6.70825C17.6667 5.62492 17.3125 4.72909 16.6042 4.02075C15.8959 3.31242 15 2.95825 13.9167 2.95825C12.8334 2.95825 11.9375 3.31242 11.2292 4.02075C10.5209 4.72909 10.1667 5.62492 10.1667 6.70825C10.1667 7.79159 10.5209 8.68742 11.2292 9.39575C11.9375 10.1041 12.8334 10.4583 13.9167 10.4583Z" fill="white"/>
</svg>
