<svg width="34" height="34" viewBox="0 0 34 34" fill="none" xmlns="http://www.w3.org/2000/svg">
<path d="M23.125 25.0416L25 23.1666L18.375 16.4999V8.12492H15.875V17.4999L23.125 25.0416ZM17 33.6666C14.7223 33.6666 12.5695 33.2291 10.5417 32.3541C8.51393 31.4791 6.7431 30.2846 5.22921 28.7708C3.71532 27.2569 2.52087 25.486 1.64587 23.4583C0.770874 21.4305 0.333374 19.2777 0.333374 16.9999C0.333374 14.7221 0.770874 12.5694 1.64587 10.5416C2.52087 8.51381 3.71532 6.74297 5.22921 5.22908C6.7431 3.7152 8.51393 2.52075 10.5417 1.64575C12.5695 0.770752 14.7223 0.333252 17 0.333252C19.2778 0.333252 21.4306 0.770752 23.4584 1.64575C25.4862 2.52075 27.257 3.7152 28.7709 5.22908C30.2848 6.74297 31.4792 8.51381 32.3542 10.5416C33.2292 12.5694 33.6667 14.7221 33.6667 16.9999C33.6667 19.2777 33.2292 21.4305 32.3542 23.4583C31.4792 25.486 30.2848 27.2569 28.7709 28.7708C27.257 30.2846 25.4862 31.4791 23.4584 32.3541C21.4306 33.2291 19.2778 33.6666 17 33.6666ZM17 31.1666C20.8889 31.1666 24.2223 29.7777 27 26.9999C29.7778 24.2221 31.1667 20.8888 31.1667 16.9999C31.1667 13.111 29.7778 9.7777 27 6.99992C24.2223 4.22214 20.8889 2.83325 17 2.83325C13.1112 2.83325 9.77782 4.22214 7.00004 6.99992C4.22226 9.7777 2.83337 13.111 2.83337 16.9999C2.83337 20.8888 4.22226 24.2221 7.00004 26.9999C9.77782 29.7777 13.1112 31.1666 17 31.1666Z" fill="white"/>
</svg>
