<svg width="94" height="94" viewBox="0 0 94 94" fill="none" xmlns="http://www.w3.org/2000/svg">
<path d="M18.3002 70.7999C22.2668 67.7666 26.7002 65.3749 31.6002 63.6249C36.5002 61.8749 41.6335 60.9999 47.0002 60.9999C52.3668 60.9999 57.5002 61.8749 62.4002 63.6249C67.3002 65.3749 71.7335 67.7666 75.7002 70.7999C78.4224 67.611 80.5418 63.9944 82.0585 59.9499C83.5752 55.9055 84.3335 51.5888 84.3335 46.9999C84.3335 36.6555 80.6974 27.8471 73.4252 20.5749C66.1529 13.3027 57.3446 9.66658 47.0002 9.66658C36.6557 9.66658 27.8474 13.3027 20.5752 20.5749C13.3029 27.8471 9.66683 36.6555 9.66683 46.9999C9.66683 51.5888 10.4252 55.9055 11.9418 59.9499C13.4585 63.9944 15.5779 67.611 18.3002 70.7999ZM47.0002 51.6666C42.4113 51.6666 38.5418 50.0916 35.3918 46.9416C32.2418 43.7916 30.6668 39.9221 30.6668 35.3333C30.6668 30.7444 32.2418 26.8749 35.3918 23.7249C38.5418 20.5749 42.4113 18.9999 47.0002 18.9999C51.589 18.9999 55.4585 20.5749 58.6085 23.7249C61.7585 26.8749 63.3335 30.7444 63.3335 35.3333C63.3335 39.9221 61.7585 43.7916 58.6085 46.9416C55.4585 50.0916 51.589 51.6666 47.0002 51.6666ZM47.0002 93.6666C40.5446 93.6666 34.4779 92.4416 28.8002 89.9916C23.1224 87.5416 18.1835 84.2166 13.9835 80.0166C9.7835 75.8166 6.4585 70.8777 4.0085 65.1999C1.5585 59.5221 0.333496 53.4555 0.333496 46.9999C0.333496 40.5444 1.5585 34.4777 4.0085 28.7999C6.4585 23.1221 9.7835 18.1833 13.9835 13.9833C18.1835 9.78325 23.1224 6.45825 28.8002 4.00825C34.4779 1.55825 40.5446 0.333252 47.0002 0.333252C53.4557 0.333252 59.5224 1.55825 65.2002 4.00825C70.8779 6.45825 75.8168 9.78325 80.0168 13.9833C84.2168 18.1833 87.5418 23.1221 89.9918 28.7999C92.4418 34.4777 93.6668 40.5444 93.6668 46.9999C93.6668 53.4555 92.4418 59.5221 89.9918 65.1999C87.5418 70.8777 84.2168 75.8166 80.0168 80.0166C75.8168 84.2166 70.8779 87.5416 65.2002 89.9916C59.5224 92.4416 53.4557 93.6666 47.0002 93.6666Z" fill="#1C1B1F"/>
</svg>
