<svg width="35" height="34" viewBox="0 0 35 34" fill="none" xmlns="http://www.w3.org/2000/svg">
<path d="M11.25 5.16675L8.75 2.66675H32.5417V5.16675H11.25ZM33.9583 27.9167L31.4583 25.4167V10.1667H21.4583V15.3751L18.9583 12.8751V9.29175C18.9583 8.81953 19.1111 8.43064 19.4167 8.12508C19.7222 7.81953 20.1111 7.66675 20.5833 7.66675H31.9167C32.4444 7.66675 32.9167 7.81258 33.3333 8.10425C33.75 8.39592 33.9583 8.77786 33.9583 9.25008V27.9167ZM32.5833 33.6667L28.2917 29.3334H20.5833C20.1111 29.3334 19.7222 29.1459 19.4167 28.7709C19.1111 28.3959 18.9583 27.9723 18.9583 27.5001V20.0001L6.70833 7.75008V25.5834H16.4583V29.3334H0.625V25.5834H4.20833V5.25008L1.33333 2.45841L3.125 0.666748L34.375 31.8751L32.5833 33.6667Z" fill="white"/>
</svg>
