<svg width="34" height="28" viewBox="0 0 34 28" fill="none" xmlns="http://www.w3.org/2000/svg">
<path d="M0.333374 27.3334V23.5834H3.91671V3.16675C3.91671 2.47925 4.1615 1.89071 4.65108 1.40112C5.14067 0.91154 5.72921 0.666748 6.41671 0.666748H32.25V3.16675H6.41671V23.5834H16.1667V27.3334H0.333374ZM20.2917 27.3334C19.8313 27.3334 19.4454 27.1459 19.1339 26.7709C18.8224 26.3959 18.6667 25.9723 18.6667 25.5001V7.29175C18.6667 6.83133 18.8224 6.4454 19.1339 6.13396C19.4454 5.82248 19.8313 5.66675 20.2917 5.66675H31.6147C32.1494 5.66675 32.625 5.81258 33.0417 6.10425C33.4584 6.39592 33.6667 6.79175 33.6667 7.29175V25.5115C33.6667 26.0277 33.4653 26.4604 33.0625 26.8096C32.6598 27.1588 32.1806 27.3334 31.625 27.3334H20.2917ZM21.1667 23.5834H31.1667V8.16675H21.1667V23.5834Z" fill="white"/>
</svg>
