<svg width="32" height="36" viewBox="0 0 32 36" fill="none" xmlns="http://www.w3.org/2000/svg">
<path d="M23.7917 35.6666C21.6129 35.6666 19.7557 34.8988 18.2201 33.3632C16.6845 31.8275 15.9167 29.9703 15.9167 27.7916C15.9167 25.6128 16.6845 23.7556 18.2201 22.22C19.7557 20.6844 21.6129 19.9166 23.7917 19.9166C25.9704 19.9166 27.8276 20.6844 29.3632 22.22C30.8989 23.7556 31.6667 25.6128 31.6667 27.7916C31.6667 29.9703 30.8989 31.8275 29.3632 33.3632C27.8276 34.8988 25.9704 35.6666 23.7917 35.6666ZM26.2185 31.9999L27.375 30.8333L24.25 27.7083V23.0416H22.625V28.2916L26.2185 31.9999ZM2.5 33.4166C1.8125 33.4166 1.22396 33.1718 0.734375 32.6822C0.244792 32.1926 0 31.6041 0 30.9166V6.66658C0 5.97908 0.215278 5.39054 0.645833 4.90096C1.07639 4.41138 1.44444 4.16658 1.75 4.16658H10.1667C10.3611 3.19436 10.8403 2.39575 11.6042 1.77075C12.3681 1.14575 13.25 0.833252 14.25 0.833252C15.25 0.833252 16.1319 1.14575 16.8958 1.77075C17.6597 2.39575 18.1389 3.19436 18.3333 4.16658H26.75C27.4375 4.16658 28.026 4.41138 28.5156 4.90096C29.0052 5.39054 29.25 5.97908 29.25 6.66658V18.9583C28.8333 18.7083 28.4234 18.4933 28.0202 18.3133C27.6169 18.1333 27.1936 17.9733 26.75 17.8333V6.66658H22.3333V12.0833H6.91667V6.66658H2.5V30.9166H13.875C14.0139 31.3333 14.1806 31.743 14.375 32.1458C14.5694 32.5485 14.8056 32.9721 15.0833 33.4166H2.5ZM15 6.49992C15.4722 6.49992 15.8681 6.3402 16.1875 6.02075C16.5069 5.70131 16.6667 5.30547 16.6667 4.83325C16.6667 4.36103 16.5069 3.9652 16.1875 3.64575C15.8681 3.32631 15.4722 3.16659 15 3.16659C14.5278 3.16659 14.1319 3.32631 13.8125 3.64575C13.4931 3.9652 13.3333 4.36103 13.3333 4.83325C13.3333 5.30547 13.4931 5.70131 13.8125 6.02075C14.1319 6.3402 14.5278 6.49992 15 6.49992Z" fill="white"/>
</svg>
