<svg width="180" height="180" viewBox="0 0 180 180" fill="none" xmlns="http://www.w3.org/2000/svg">
<circle cx="90" cy="90" r="90" fill="#0011FF"/>
<path fill-rule="evenodd" clip-rule="evenodd" d="M50.9232 72.6343L59.7168 120.994H45.0032L50.9232 72.6343Z" fill="#6A6A6A"/>
<path fill-rule="evenodd" clip-rule="evenodd" d="M59.5231 121.208L50.7295 72.8483H65.4431L59.5231 121.208Z" fill="#6A6A6A"/>
<path fill-rule="evenodd" clip-rule="evenodd" d="M77.7399 62.7913L86.5334 120.525H71.8198L77.7399 62.7913Z" fill="#6A6A6A"/>
<path fill-rule="evenodd" clip-rule="evenodd" d="M86.3397 120.78L77.5461 63.0466H92.2598L86.3397 120.78Z" fill="#6A6A6A"/>
<path fill-rule="evenodd" clip-rule="evenodd" d="M104.561 62.7913L113.354 120.525H98.6409L104.561 62.7913Z" fill="#6A6A6A"/>
<path fill-rule="evenodd" clip-rule="evenodd" d="M113.161 120.78L104.367 63.0466H119.081L113.161 120.78Z" fill="#6A6A6A"/>
<path fill-rule="evenodd" clip-rule="evenodd" d="M80.8278 73.5934L33.4061 62.2234L32.2953 72.7915L80.8278 73.5934Z" fill="#6A6A6A"/>
<path fill-rule="evenodd" clip-rule="evenodd" d="M33.1788 62.3402L80.6005 73.7101L81.7113 63.1421L33.1788 62.3402Z" fill="#6A6A6A"/>
<rect x="86.5295" y="84.4033" width="62.1832" height="12.411" fill="#6A6A6A"/>
<path fill-rule="evenodd" clip-rule="evenodd" d="M161.098 90.6882L147.406 81.1679V100.208L161.098 90.6882Z" fill="#6A6A6A"/>
<path fill-rule="evenodd" clip-rule="evenodd" d="M53.9091 72.6343L62.7026 120.994H47.989L53.9091 72.6343Z" fill="#A19E9E"/>
<path fill-rule="evenodd" clip-rule="evenodd" d="M62.5089 121.208L53.7153 72.8483H68.429L62.5089 121.208Z" fill="#A19E9E"/>
<path fill-rule="evenodd" clip-rule="evenodd" d="M80.7257 62.7913L89.5193 120.525H74.8057L80.7257 62.7913Z" fill="#A19E9E"/>
<path fill-rule="evenodd" clip-rule="evenodd" d="M89.3256 120.78L80.532 63.0466H95.2456L89.3256 120.78Z" fill="#A19E9E"/>
<path fill-rule="evenodd" clip-rule="evenodd" d="M107.547 62.7913L116.341 120.525H101.627L107.547 62.7913Z" fill="#A19E9E"/>
<path fill-rule="evenodd" clip-rule="evenodd" d="M116.147 120.78L107.353 63.0466H122.067L116.147 120.78Z" fill="#A19E9E"/>
<path fill-rule="evenodd" clip-rule="evenodd" d="M83.8136 73.5934L36.3919 62.2234L35.2812 72.7915L83.8136 73.5934Z" fill="#A19E9E"/>
<path fill-rule="evenodd" clip-rule="evenodd" d="M36.1642 62.3402L83.5859 73.7102L84.6966 63.1421L36.1642 62.3402Z" fill="#A19E9E"/>
<rect x="89.5154" y="84.4033" width="62.1832" height="12.411" fill="#A19E9E"/>
<path fill-rule="evenodd" clip-rule="evenodd" d="M164.084 90.6882L150.392 81.1679V100.208L164.084 90.6882Z" fill="#A19E9E"/>
<path fill-rule="evenodd" clip-rule="evenodd" d="M56.4669 72.6343L65.2605 120.994H50.5469L56.4669 72.6343Z" fill="white"/>
<path fill-rule="evenodd" clip-rule="evenodd" d="M65.0668 121.208L56.2732 72.8483H70.9868L65.0668 121.208Z" fill="white"/>
<path fill-rule="evenodd" clip-rule="evenodd" d="M83.2833 62.7913L92.0769 120.525H77.3633L83.2833 62.7913Z" fill="white"/>
<path fill-rule="evenodd" clip-rule="evenodd" d="M91.8832 120.78L83.0896 63.0466H97.8032L91.8832 120.78Z" fill="white"/>
<path fill-rule="evenodd" clip-rule="evenodd" d="M110.105 62.7913L118.898 120.525H104.185L110.105 62.7913Z" fill="white"/>
<path fill-rule="evenodd" clip-rule="evenodd" d="M118.705 120.78L109.911 63.0466H124.625L118.705 120.78Z" fill="white"/>
<path fill-rule="evenodd" clip-rule="evenodd" d="M86.3715 73.5934L38.9498 62.2234L37.839 72.7915L86.3715 73.5934Z" fill="white"/>
<path fill-rule="evenodd" clip-rule="evenodd" d="M38.7223 62.3402L86.144 73.7102L87.2547 63.1421L38.7223 62.3402Z" fill="white"/>
<rect x="92.0732" y="84.4033" width="62.1832" height="12.411" fill="white"/>
<path fill-rule="evenodd" clip-rule="evenodd" d="M166.642 90.6879L152.95 81.1676V100.208L166.642 90.6879Z" fill="white"/>
</svg>
